<?xml version="1.0" encoding="UTF-8"?>
<svg width="1000px" height="1000px" viewBox="0 0 1000 1000" version="1.1" xmlns="http://www.w3.org/2000/svg">
  <g stroke="rgba(14, 165, 233, 0.4)" stroke-width="1" fill="none" fill-rule="evenodd">
    <path d="M100,100 C150,50 200,150 250,100 C300,50 350,150 400,100 C450,50 500,150 550,100 C600,50 650,150 700,100 C750,50 800,150 850,100 C900,50 950,150 1000,100"></path>
    <path d="M100,200 C150,150 200,250 250,200 C300,150 350,250 400,200 C450,150 500,250 550,200 C600,150 650,250 700,200 C750,150 800,250 850,200 C900,150 950,250 1000,200"></path>
    <path d="M100,300 C150,250 200,350 250,300 C300,250 350,350 400,300 C450,250 500,350 550,300 C600,250 650,350 700,300 C750,250 800,350 850,300 C900,250 950,350 1000,300"></path>
    <path d="M100,400 C150,350 200,450 250,400 C300,350 350,450 400,400 C450,350 500,450 550,400 C600,350 650,450 700,400 C750,350 800,450 850,400 C900,350 950,450 1000,400"></path>
    <path d="M100,500 C150,450 200,550 250,500 C300,450 350,550 400,500 C450,450 500,550 550,500 C600,450 650,550 700,500 C750,450 800,550 850,500 C900,450 950,550 1000,500"></path>
    <path d="M100,600 C150,550 200,650 250,600 C300,550 350,650 400,600 C450,550 500,650 550,600 C600,550 650,650 700,600 C750,550 800,650 850,600 C900,550 950,650 1000,600"></path>
    <path d="M100,700 C150,650 200,750 250,700 C300,650 350,750 400,700 C450,650 500,750 550,700 C600,650 650,750 700,700 C750,650 800,750 850,700 C900,650 950,750 1000,700"></path>
    <path d="M100,800 C150,750 200,850 250,800 C300,750 350,850 400,800 C450,750 500,850 550,800 C600,750 650,850 700,800 C750,750 800,850 850,800 C900,750 950,850 1000,800"></path>
    <path d="M100,900 C150,850 200,950 250,900 C300,850 350,950 400,900 C450,850 500,950 550,900 C600,850 650,950 700,900 C750,850 800,950 850,900 C900,850 950,950 1000,900"></path>
    <circle cx="200" cy="200" r="5"></circle>
    <circle cx="400" cy="200" r="5"></circle>
    <circle cx="600" cy="200" r="5"></circle>
    <circle cx="800" cy="200" r="5"></circle>
    <circle cx="300" cy="300" r="5"></circle>
    <circle cx="500" cy="300" r="5"></circle>
    <circle cx="700" cy="300" r="5"></circle>
    <circle cx="900" cy="300" r="5"></circle>
    <circle cx="200" cy="400" r="5"></circle>
    <circle cx="400" cy="400" r="5"></circle>
    <circle cx="600" cy="400" r="5"></circle>
    <circle cx="800" cy="400" r="5"></circle>
    <circle cx="300" cy="500" r="5"></circle>
    <circle cx="500" cy="500" r="5"></circle>
    <circle cx="700" cy="500" r="5"></circle>
    <circle cx="900" cy="500" r="5"></circle>
    <circle cx="200" cy="600" r="5"></circle>
    <circle cx="400" cy="600" r="5"></circle>
    <circle cx="600" cy="600" r="5"></circle>
    <circle cx="800" cy="600" r="5"></circle>
    <circle cx="300" cy="700" r="5"></circle>
    <circle cx="500" cy="700" r="5"></circle>
    <circle cx="700" cy="700" r="5"></circle>
    <circle cx="900" cy="700" r="5"></circle>
    <circle cx="200" cy="800" r="5"></circle>
    <circle cx="400" cy="800" r="5"></circle>
    <circle cx="600" cy="800" r="5"></circle>
    <circle cx="800" cy="800" r="5"></circle>
  </g>
</svg>