<?xml version="1.0" encoding="UTF-8"?>
<svg width="800px" height="800px" viewBox="0 0 800 800" version="1.1" xmlns="http://www.w3.org/2000/svg">
  <g stroke="rgba(14, 165, 233, 0.15)" stroke-width="1" fill="none" fill-rule="evenodd">
    <path d="M50,50 L50,750 M100,50 L100,750 M150,50 L150,750 M200,50 L200,750 M250,50 L250,750 M300,50 L300,750 M350,50 L350,750 M400,50 L400,750 M450,50 L450,750 M500,50 L500,750 M550,50 L550,750 M600,50 L600,750 M650,50 L650,750 M700,50 L700,750 M750,50 L750,750"></path>
    <path d="M50,50 L750,50 M50,100 L750,100 M50,150 L750,150 M50,200 L750,200 M50,250 L750,250 M50,300 L750,300 M50,350 L750,350 M50,400 L750,400 M50,450 L750,450 M50,500 L750,500 M50,550 L750,550 M50,600 L750,600 M50,650 L750,650 M50,700 L750,700 M50,750 L750,750"></path>
    <circle cx="150" cy="150" r="8"></circle>
    <circle cx="250" cy="150" r="8"></circle>
    <circle cx="350" cy="250" r="8"></circle>
    <circle cx="450" cy="150" r="8"></circle>
    <circle cx="550" cy="350" r="8"></circle>
    <circle cx="650" cy="250" r="8"></circle>
    <circle cx="150" cy="350" r="8"></circle>
    <circle cx="250" cy="450" r="8"></circle>
    <circle cx="350" cy="550" r="8"></circle>
    <circle cx="450" cy="450" r="8"></circle>
    <circle cx="550" cy="650" r="8"></circle>
    <circle cx="650" cy="550" r="8"></circle>
    <circle cx="150" cy="650" r="8"></circle>
    <circle cx="350" cy="650" r="8"></circle>
    <circle cx="550" cy="450" r="8"></circle>
    <path d="M150,150 L250,150 M250,150 L250,250 M250,250 L350,250 M350,250 L450,250 M450,250 L450,150 M550,350 L550,450 M550,450 L650,450 M650,450 L650,550 M350,550 L350,650 M350,650 L450,650 M450,650 L450,550" stroke-width="2"></path>
  </g>
</svg>